<?xml version="1.0" standalone="no"?>
<!DOCTYPE svg PUBLIC "-//W3C//DTD SVG 20010904//EN"
 "http://www.w3.org/TR/2001/REC-SVG-20010904/DTD/svg10.dtd">
<svg version="1.0" xmlns="http://www.w3.org/2000/svg"
 width="700.000000pt" height="700.000000pt" viewBox="0 0 700.000000 700.000000"
 preserveAspectRatio="xMidYMid meet">
<metadata>
Created by potrace 1.11, written by Peter Selinger 2001-2013
</metadata>
<g transform="translate(0.000000,700.000000) scale(0.100000,-0.100000)"
fill="#000000" stroke="none">
<path d="M1179 6996 c-2 -2 -29 -7 -59 -10 -261 -31 -528 -167 -734 -375 -192
-193 -307 -405 -363 -671 -17 -80 -18 -214 -18 -2425 0 -1287 4 -2365 8 -2395
38 -265 166 -522 359 -719 166 -169 338 -276 543 -340 207 -64 51 -60 2615
-58 1284 1 2347 6 2363 10 15 4 37 9 50 11 244 45 476 170 668 361 179 178
300 391 353 620 9 39 19 84 23 100 4 17 8 1078 10 2360 2 2558 5 2415 -58
2620 -59 191 -170 370 -325 526 -212 214 -457 336 -754 378 -61 9 -4672 15
-4681 7z m3640 -1228 c31 -12 70 -30 86 -41 42 -29 796 -781 821 -820 42 -65
66 -148 66 -232 1 -178 -23 -217 -308 -504 l-234 -235 -657 657 -657 657 234
233 c161 158 252 241 288 260 104 56 250 66 361 25z m131 -2122 c0 -5 -556
-565 -1235 -1244 l-1235 -1236 -651 0 c-569 -1 -652 1 -658 14 -4 8 -6 304 -5
658 l1 643 1239 1239 1239 1239 653 -652 c358 -358 652 -656 652 -661z"/>
<path d="M3625 4321 c-39 -25 -1395 -1383 -1396 -1399 -1 -6 -2 -18 -4 -24 -2
-14 20 -55 41 -75 18 -18 65 -16 94 4 13 10 332 325 707 700 472 472 683 690
684 706 2 41 -2 52 -32 80 -35 32 -53 34 -94 8z"/>
<path d="M1719 2413 l-115 -118 1 -125 0 -125 213 -1 c117 -1 215 -4 219 -7 3
-3 6 -102 7 -219 l1 -213 127 0 127 -1 117 119 118 118 -344 344 c-190 190
-347 345 -351 345 -3 0 -57 -53 -120 -117z"/>
</g>
</svg>
