<?xml version="1.0" standalone="no"?>
<!DOCTYPE svg PUBLIC "-//W3C//DTD SVG 20010904//EN"
 "http://www.w3.org/TR/2001/REC-SVG-20010904/DTD/svg10.dtd">
<svg version="1.0" xmlns="http://www.w3.org/2000/svg"
 width="448.000000pt" height="448.000000pt" viewBox="0 0 448.000000 448.000000"
 preserveAspectRatio="xMidYMid meet">
<metadata>
Created by potrace 1.11, written by Peter Selinger 2001-2013
</metadata>
<g transform="translate(0.000000,448.000000) scale(0.100000,-0.100000)"
fill="#000000" stroke="none">
<path d="M923 3150 c-232 -33 -468 -178 -609 -377 -84 -117 -160 -312 -163
-420 -1 -22 -5 -23 -76 -23 l-75 0 0 -90 0 -90 73 0 73 0 12 -72 c15 -89 32
-139 82 -243 68 -145 177 -268 315 -360 151 -100 293 -145 480 -151 230 -7
423 58 608 205 177 141 312 383 331 596 14 149 18 171 41 207 70 107 215 150
331 98 90 -39 142 -106 149 -191 11 -135 18 -180 42 -259 60 -205 193 -386
370 -503 86 -57 157 -89 269 -123 74 -22 111 -26 214 -28 147 -1 200 5 295 34
330 103 579 384 637 718 l12 72 73 0 73 0 0 90 0 90 -75 0 c-74 0 -75 0 -75
26 0 88 -89 316 -163 418 -144 198 -370 337 -607 374 -73 11 -270 7 -330 -7
-250 -59 -448 -194 -578 -394 -45 -69 -112 -210 -112 -236 0 -16 -26 -13 -41
5 -39 47 -193 95 -284 87 -94 -7 -202 -49 -244 -95 -20 -20 -21 -20 -27 -2
-55 156 -130 280 -231 382 -208 208 -493 303 -790 262z m340 -169 c287 -84
492 -302 554 -591 8 -38 9 -259 1 -300 -9 -46 -40 -135 -70 -195 -101 -206
-303 -359 -539 -411 -13 -3 -69 -7 -124 -9 -437 -18 -802 344 -790 782 3 98
11 140 40 229 88 264 314 458 590 509 95 18 253 11 338 -14z m2307 14 c72 -14
207 -72 276 -118 173 -116 304 -319 330 -510 36 -262 -40 -496 -220 -672 -146
-145 -312 -215 -516 -220 -307 -7 -569 149 -705 420 -65 130 -85 222 -82 370
3 103 8 133 34 210 113 330 406 538 743 530 58 -2 121 -6 140 -10z"/>
<path d="M1224 2602 c-23 -15 -145 -90 -272 -167 l-230 -139 1 -60 2 -60 235
-143 c129 -79 252 -154 273 -167 42 -28 38 -34 39 61 l1 46 -221 132 -221 131
222 133 222 132 0 65 c0 35 -2 64 -5 63 -3 0 -24 -13 -46 -27z"/>
<path d="M3321 2730 c-9 -5 -334 -958 -328 -961 1 -1 25 -2 53 -3 l51 -2 158
476 c86 261 158 479 159 484 1 11 -77 16 -93 6z"/>
<path d="M3459 2610 c0 -5 -1 -26 -1 -45 0 -19 1 -43 1 -53 1 -12 28 -34 77
-63 133 -77 227 -133 258 -152 11 -7 39 -24 62 -38 l42 -25 -216 -129 c-120
-71 -219 -130 -220 -131 -5 -3 -6 -124 -1 -128 2 -2 126 71 276 163 l271 166
-1 60 -2 60 -265 162 c-146 89 -268 162 -272 162 -5 1 -8 -3 -9 -9z"/>
</g>
</svg>
