<?xml version="1.0" standalone="no"?>
<!DOCTYPE svg PUBLIC "-//W3C//DTD SVG 20010904//EN"
 "http://www.w3.org/TR/2001/REC-SVG-20010904/DTD/svg10.dtd">
<svg version="1.0" xmlns="http://www.w3.org/2000/svg"
 width="400.000000pt" height="400.000000pt" viewBox="0 0 400.000000 400.000000"
 preserveAspectRatio="xMidYMid meet">
<metadata>
Created by potrace 1.11, written by Peter Selinger 2001-2013
</metadata>
<g transform="translate(0.000000,400.000000) scale(0.100000,-0.100000)"
fill="#000000" stroke="none">
<path d="M1264 3880 c-118 -17 -234 -77 -307 -159 -81 -90 -181 -271 -192
-346 -5 -43 -5 -43 32 55 64 165 227 293 426 334 80 17 167 21 167 9 -1 -5
-21 -24 -46 -43 -68 -52 -173 -177 -223 -265 -54 -94 -103 -222 -127 -330 -21
-98 -23 -320 -4 -415 8 -41 13 -153 15 -300 1 -199 19 -430 31 -417 2 2 -1 66
-7 143 -11 138 -6 452 9 544 15 91 24 -133 11 -305 -11 -165 -1 -413 21 -495
l9 -35 -5 40 c-11 91 -15 541 -6 565 l11 25 0 -27 c1 -15 15 -61 31 -103 21
-52 30 -95 32 -138 l1 -62 6 50 c6 46 7 48 14 20 3 -16 18 -100 32 -185 27
-167 58 -290 107 -428 32 -91 104 -242 133 -277 11 -14 10 -8 -4 21 -38 79
-101 245 -135 357 -39 127 -111 442 -122 532 -4 40 -9 54 -14 41 -13 -38 -20
11 -22 152 l-2 137 -5 -115 -6 -115 -17 80 c-30 133 -38 213 -38 370 0 156 19
350 45 445 19 70 12 78 -8 8 -24 -82 -45 -204 -51 -303 -7 -100 -25 -205 -36
-218 -18 -20 -22 180 -6 303 37 275 160 519 344 676 69 59 75 62 104 52 16 -6
47 -27 69 -48 21 -20 39 -34 39 -30 0 14 -78 80 -112 95 -49 20 -185 20 -263
0 -89 -24 -173 -64 -244 -119 l-65 -49 35 48 c96 135 251 215 414 215 83 0
143 -23 195 -73 23 -23 38 -33 32 -21 -6 11 -18 27 -27 34 -14 12 -13 15 12
31 32 21 26 25 -11 8 -20 -9 -32 -8 -60 5 -33 16 -127 37 -150 35 -6 -1 -34
-5 -62 -9z"/>
<path d="M1613 3355 c0 -22 2 -30 4 -17 2 12 2 30 0 40 -3 9 -5 -1 -4 -23z"/>
<path d="M751 3314 c0 -11 3 -14 6 -6 3 7 2 16 -1 19 -3 4 -6 -2 -5 -13z"/>
<path d="M2151 3315 c0 -11 6 -81 14 -155 15 -138 20 -366 9 -431 -6 -34 -10
-37 -63 -54 -31 -10 -60 -19 -66 -21 -6 -3 -10 32 -10 93 0 149 -14 394 -25
433 -10 35 -9 -30 7 -382 5 -112 3 -151 -7 -163 -7 -8 -16 -15 -20 -15 -17 0
-79 215 -110 380 -16 83 -18 89 -19 47 -1 -72 20 -191 31 -175 6 8 8 1 4 -22
-4 -25 -3 -31 4 -20 8 13 10 13 10 -2 0 -10 14 -61 31 -113 29 -93 30 -115 5
-115 -16 0 -68 164 -97 302 -17 85 -20 124 -15 223 3 66 8 138 10 160 3 22 -1
11 -8 -24 -42 -196 -22 -543 40 -734 24 -71 25 -53 3 38 -19 80 -50 287 -48
328 0 12 13 -27 29 -88 15 -60 38 -134 49 -164 17 -41 19 -56 10 -67 -16 -19
14 -14 59 10 l33 17 -4 -40 c-4 -38 4 -53 17 -33 3 5 32 17 65 28 34 10 61 22
61 25 0 10 -82 -10 -107 -27 -21 -13 -23 -13 -22 3 1 40 17 56 78 79 l63 24
-6 -33 -6 -32 13 34 c15 40 33 50 40 24 4 -15 5 -15 6 3 1 16 13 24 59 37 31
9 64 19 73 22 14 5 19 -5 28 -58 6 -35 11 -67 11 -70 0 -4 -35 -7 -77 -7 -105
0 -217 -31 -268 -75 -18 -15 -18 -16 -1 -11 14 5 17 2 12 -10 -4 -9 8 -4 28
14 34 30 108 52 114 34 1 -5 10 -18 18 -28 15 -18 15 -18 11 9 l-4 27 82 0
c90 0 103 -8 82 -50 -16 -32 -32 -35 -56 -11 -12 12 -21 17 -21 11 0 -20 41
-52 58 -45 28 11 34 11 39 -2 3 -7 -7 -18 -21 -24 -20 -9 -35 -8 -77 5 -62 21
-73 15 -28 -14 32 -20 81 -23 128 -9 21 6 58 51 71 83 19 52 35 24 34 -60 0
-77 0 -78 12 -39 19 61 16 13 -7 -125 -11 -69 -22 -142 -25 -162 -2 -21 -17
-66 -34 -100 -17 -35 -23 -54 -14 -43 29 36 67 128 69 169 2 23 10 86 19 141
8 55 20 129 25 165 9 60 10 58 5 -35 -3 -55 -14 -135 -25 -178 -11 -43 -17
-82 -13 -88 3 -6 0 -48 -6 -95 -10 -71 -18 -93 -46 -130 -42 -55 -43 -62 -4
-34 l31 22 -6 -24 c-3 -12 -14 -61 -25 -108 -11 -47 -22 -96 -25 -110 l-6 -25
11 24 c21 47 91 345 105 445 8 55 20 204 26 329 16 313 -3 555 -67 835 -27
120 -26 76 2 -59 21 -99 27 -163 31 -322 3 -108 2 -232 -3 -275 l-8 -77 -8
110 c-5 61 -12 166 -17 235 -4 69 -9 112 -10 95 -2 -23 -8 -12 -25 48 -13 42
-27 81 -31 85 -5 4 -5 -2 -1 -13 29 -77 39 -151 40 -285 1 -80 -3 -167 -7
-193 -8 -47 -10 -48 -35 -42 -15 4 -28 7 -29 8 0 1 -3 36 -5 77 l-3 75 35 6
35 6 -41 2 -41 1 -21 128 c-13 79 -20 104 -18 67 l4 -60 -14 60 c-8 33 -24
103 -36 155 -29 122 -31 92 -13 -155 l14 -200 -4 165 -4 165 29 -140 c39 -187
38 -192 -4 -197 l-33 -4 -7 116 c-4 63 -15 165 -25 225 l-17 110 -7 -200 c-8
-212 -15 -266 -35 -273 -10 -3 -11 3 -5 25 15 53 6 361 -15 488 -11 66 -20
111 -21 100z m115 -481 c7 -110 6 -112 -15 -119 -13 -4 -24 -5 -26 -3 -2 2 0
33 5 68 5 36 10 106 11 155 1 75 3 83 9 50 5 -22 12 -90 16 -151z m295 -272
c-7 -55 -8 -37 -8 103 0 168 0 169 8 67 5 -57 5 -133 0 -170z m-51 43 c0 -66
-3 -72 -30 -55 -12 7 -13 13 -3 28 6 11 15 36 18 56 4 20 9 36 11 36 2 0 4
-29 4 -65z m-74 -89 c3 -7 -2 -29 -10 -47 l-14 -34 -1 48 c-1 44 13 64 25 33z"/>
<path d="M1597 3195 c-5 -60 -12 -139 -16 -175 l-8 -65 -3 85 c-3 81 -3 83
-10 35 -5 -27 -10 -113 -13 -190 -2 -78 -2 -102 2 -55 l6 85 8 -100 c4 -55 10
-113 14 -129 l5 -28 -28 16 c-16 9 -41 20 -56 26 -27 9 -28 13 -28 72 0 35 -5
70 -10 78 -6 10 -7 -10 -3 -58 6 -77 4 -81 -42 -60 -17 8 -25 19 -25 37 0 28
54 297 69 346 l9 30 2 -35 c2 -25 6 -12 16 44 7 43 18 93 23 110 9 27 9 29 -3
13 -44 -57 -136 -433 -151 -614 -4 -46 -11 -81 -15 -78 -4 3 -10 -4 -13 -15
-3 -12 0 -20 7 -20 9 0 15 -28 19 -91 7 -92 25 -179 54 -257 23 -61 27 -45 4
19 -28 81 -58 289 -42 289 5 0 12 -6 15 -12 3 -7 3 4 0 25 l-6 37 41 0 c33 0
41 -4 41 -18 0 -10 7 -27 15 -38 15 -18 16 -17 9 15 l-6 34 33 -7 c44 -8 119
-45 125 -61 3 -6 0 -24 -5 -38 -9 -23 -16 -27 -49 -27 -26 0 -45 7 -57 20 -10
11 -22 17 -27 14 -12 -8 19 -41 46 -51 20 -6 20 -7 -4 -14 -21 -6 -18 -7 17
-8 34 -1 45 4 67 30 14 17 26 37 26 45 0 17 12 18 28 2 7 -7 12 -8 12 -2 0 12
-55 64 -91 86 -40 25 -128 48 -182 48 l-49 0 7 68 c4 37 9 69 11 71 2 2 22 -4
44 -14 28 -12 40 -25 41 -39 0 -19 1 -19 8 -2 7 17 9 17 36 -6 17 -14 37 -28
45 -31 8 -4 43 -25 78 -46 34 -22 62 -37 62 -33 -1 4 -26 27 -55 52 l-55 44 1
171 c0 93 4 188 8 210 7 38 7 36 14 -35 13 -131 87 -386 118 -406 5 -3 3 12
-5 33 -19 48 -72 264 -80 323 -4 30 2 17 18 -40 44 -156 126 -339 181 -405 18
-21 12 -5 -19 55 -83 159 -168 409 -192 565 -5 34 -9 44 -13 30 -3 -11 -8 18
-11 65 l-5 85 -8 -110z"/>
<path d="M1572 3165 c0 -16 2 -22 5 -12 2 9 2 23 0 30 -3 6 -5 -1 -5 -18z"/>
<path d="M2031 3174 c0 -11 3 -14 6 -6 3 7 2 16 -1 19 -3 4 -6 -2 -5 -13z"/>
<path d="M2042 3130 c0 -14 2 -19 5 -12 2 6 2 18 0 25 -3 6 -5 1 -5 -13z"/>
<path d="M1251 3114 c0 -11 3 -14 6 -6 3 7 2 16 -1 19 -3 4 -6 -2 -5 -13z"/>
<path d="M1212 3014 c-14 -67 -20 -130 -17 -164 3 -37 2 -45 -3 -25 -15 58
-22 -169 -10 -322 7 -81 12 -167 12 -190 0 -23 3 -37 7 -31 4 5 10 -7 13 -27
14 -72 15 -28 2 50 -19 112 -27 280 -17 345 7 44 9 48 10 20 0 -19 12 -80 25
-135 22 -91 40 -141 81 -230 10 -21 16 -85 19 -205 7 -258 40 -501 92 -676 15
-49 27 -96 27 -104 0 -13 37 -70 37 -58 0 3 -7 25 -16 49 -20 56 -64 229 -63
249 0 8 15 -31 34 -88 19 -56 55 -143 81 -192 l46 -90 -32 -118 c-34 -122 -43
-213 -22 -234 9 -9 12 -7 12 12 0 20 52 254 66 299 4 11 7 11 21 0 14 -12 14
-10 -1 13 -10 16 -16 34 -13 40 3 7 39 55 81 107 42 51 81 102 87 113 6 11 17
17 25 14 8 -3 14 -1 14 4 0 6 -10 10 -22 10 -23 0 -92 -75 -148 -159 -14 -21
-35 -43 -47 -48 -21 -10 -25 -7 -48 43 -67 142 -156 446 -159 541 0 28 -5 49
-9 46 -5 -3 -6 17 -3 43 5 37 4 44 -4 29 -7 -15 -9 -4 -5 40 4 37 2 55 -3 47
-10 -15 -22 63 -21 138 l0 45 15 -40 c8 -22 21 -87 29 -145 23 -158 95 -398
144 -475 15 -25 10 -9 -24 74 -32 77 -90 279 -99 341 l-6 45 21 -45 c12 -25
25 -61 30 -80 7 -27 7 -23 3 20 l-5 55 27 -45 c15 -25 37 -56 48 -71 31 -37
313 -282 350 -304 17 -10 24 -54 26 -175 1 -35 3 -40 10 -24 4 11 10 34 11 50
2 16 10 37 18 47 8 9 11 17 6 17 -4 0 12 17 36 38 28 25 37 39 26 39 -9 0 -13
-5 -10 -10 3 -6 1 -7 -6 -3 -18 12 -3 25 23 20 18 -3 34 8 71 47 26 28 45 52
43 55 -3 2 -31 -7 -64 -20 -32 -13 -93 -27 -134 -31 -73 -7 -76 -6 -118 25
-24 17 -95 81 -159 143 -126 122 -177 197 -234 341 -17 44 -51 122 -74 171
-50 105 -69 160 -96 270 -19 83 -40 274 -33 316 2 13 10 67 19 120 10 59 12
105 7 119 -7 18 -13 0 -30 -86z m25 44 c-3 -8 -6 -5 -6 6 -1 11 2 17 5 13 3
-3 4 -12 1 -19z m202 -1078 c0 -10 -3 -8 -9 5 -12 27 -12 43 0 25 5 -8 9 -22
9 -30z m656 -360 c-3 -5 -12 -10 -18 -10 -7 0 -6 4 3 10 19 12 23 12 15 0z
m-688 -32 c-3 -8 -6 -5 -6 6 -1 11 2 17 5 13 3 -3 4 -12 1 -19z m557 -95 c-16
-12 -29 -27 -29 -32 0 -5 -3 -12 -6 -15 -3 -3 -6 2 -6 12 0 9 5 20 11 24 7 5
6 8 -4 8 -10 0 -7 6 9 19 14 10 31 16 39 13 12 -4 8 -11 -14 -29z"/>
<path d="M1949 1503 c-13 -16 -12 -17 4 -4 9 7 17 15 17 17 0 8 -8 3 -21 -13z"/>
<path d="M2882 3090 c0 -14 2 -19 5 -12 2 6 2 18 0 25 -3 6 -5 1 -5 -13z"/>
<path d="M2050 3092 c0 -7 7 -54 16 -104 9 -51 20 -140 24 -198 l9 -105 -4
115 c-3 63 -12 155 -21 205 -14 82 -24 117 -24 87z"/>
<path d="M2483 3040 c0 -25 2 -35 4 -22 2 12 2 32 0 45 -2 12 -4 2 -4 -23z"/>
<path d="M1463 2980 c0 -47 2 -66 4 -42 2 23 2 61 0 85 -2 23 -4 4 -4 -43z"/>
<path d="M2032 3030 c0 -19 2 -27 5 -17 2 9 2 25 0 35 -3 9 -5 1 -5 -18z"/>
<path d="M2332 3030 c0 -19 2 -27 5 -17 2 9 2 25 0 35 -3 9 -5 1 -5 -18z"/>
<path d="M2897 2975 c13 -133 7 -614 -11 -815 -31 -340 -34 -364 -53 -377 -9
-7 -19 -13 -22 -13 -3 0 -5 60 -5 132 2 121 1 126 -6 53 -4 -44 -16 -111 -26
-150 -17 -65 -19 -68 -26 -40 -6 24 -6 21 -3 -11 3 -23 -2 -61 -11 -88 -9 -26
-14 -49 -12 -52 3 -2 12 17 21 43 l16 48 0 -50 c1 -53 -25 -220 -38 -243 -5
-9 -15 3 -29 39 -12 29 -25 50 -28 46 -3 -3 3 -42 15 -87 l20 -81 -20 -52
c-11 -29 -27 -63 -36 -76 -8 -13 -10 -20 -4 -17 6 4 21 25 32 48 11 22 22 38
23 36 6 -7 -16 -281 -30 -383 -9 -60 -16 -121 -17 -135 -4 -55 -141 -223 -248
-305 -32 -25 -136 -95 -231 -156 -258 -165 -419 -289 -376 -289 9 0 54 28 100
63 46 34 162 111 258 171 221 138 289 187 371 273 100 104 179 229 243 385 37
90 47 125 20 73 -45 -85 -126 -226 -130 -223 -5 6 21 87 50 152 52 114 118
397 115 489 0 18 -9 -20 -19 -83 -10 -63 -23 -137 -29 -165 -15 -64 -73 -247
-77 -243 -2 2 2 91 8 198 9 153 14 188 21 163 6 -18 14 -33 18 -33 13 0 9 69
-5 109 -10 29 -9 47 6 110 10 42 18 89 18 104 0 19 4 26 11 21 8 -5 10 1 5 19
-10 40 -8 159 3 192 7 23 9 4 6 -75 l-4 -105 11 82 c9 69 14 82 31 87 12 3 22
4 23 3 5 -4 -27 -173 -46 -247 -20 -81 -19 -109 2 -38 l13 43 6 -50 c6 -49 6
-48 6 15 0 36 7 101 16 145 9 44 19 99 22 122 5 32 14 48 36 64 l29 20 -6 -33
c-3 -18 -19 -60 -35 -93 l-29 -60 34 37 c36 38 56 90 56 145 0 25 18 58 76
135 101 138 163 264 169 343 2 33 7 78 10 100 3 26 -6 8 -28 -55 -62 -175
-143 -339 -200 -403 -15 -18 -26 -26 -22 -19 11 22 -1 12 -25 -20 -17 -24 -19
-29 -5 -18 17 14 17 14 7 -5 -14 -23 -48 -65 -54 -65 -12 0 8 69 28 100 27 42
70 168 78 230 4 33 3 38 -4 20 -6 -17 -7 -4 -4 45 3 59 1 52 -15 -45 -19 -122
-42 -209 -66 -250 -13 -23 -14 -16 -9 75 7 131 22 224 41 253 53 82 69 229 32
288 -16 27 -22 56 -26 132 -10 223 -23 356 -33 366 -8 8 -9 -10 -3 -69z m58
-466 c10 -44 -4 -169 -21 -199 -14 -23 -14 -20 -9 43 4 37 6 94 6 127 0 64 13
80 24 29z"/>
<path d="M2047 2845 c3 -82 6 -154 8 -160 7 -21 3 232 -4 270 -4 23 -6 -23 -4
-110z"/>
<path d="M1294 2785 c0 -55 1 -76 3 -47 2 29 2 74 0 100 -2 26 -3 2 -3 -53z"/>
<path d="M1153 2785 c0 -27 2 -38 4 -22 2 15 2 37 0 50 -2 12 -4 0 -4 -28z"/>
<path d="M1342 2780 c0 -19 2 -27 5 -17 2 9 2 25 0 35 -3 9 -5 1 -5 -18z"/>
<path d="M1333 2660 c0 -30 2 -43 4 -27 2 15 2 39 0 55 -2 15 -4 2 -4 -28z"/>
<path d="M1147 2570 c3 -47 7 -87 9 -89 8 -9 2 135 -6 154 -5 12 -6 -14 -3
-65z"/>
<path d="M1302 2620 c0 -14 2 -19 5 -12 2 6 2 18 0 25 -3 6 -5 1 -5 -13z"/>
<path d="M1605 2556 c17 -14 35 -25 40 -25 11 0 -20 25 -50 41 -11 5 -6 -2 10
-16z"/>
<path d="M2850 2534 c-1 -53 -70 -395 -105 -524 -99 -354 -176 -552 -278 -715
-51 -81 -153 -210 -199 -250 -25 -22 -33 -32 -18 -25 45 24 185 174 242 260
104 159 183 341 235 546 24 95 28 105 35 79 6 -24 7 -22 4 13 -2 23 0 42 5 42
5 0 9 17 9 38 1 20 7 51 15 67 13 30 13 30 15 5 2 -23 3 -23 9 5 4 17 5 36 1
42 -3 7 0 63 7 125 29 264 32 292 28 297 -3 2 -5 0 -5 -5z"/>
<path d="M3132 2520 c0 -14 2 -19 5 -12 2 6 2 18 0 25 -3 6 -5 1 -5 -13z"/>
<path d="M1541 2489 c-1 -8 5 -23 12 -33 11 -15 17 -17 35 -7 12 6 22 19 22
29 -1 16 -1 16 -11 0 -14 -25 -34 -22 -47 5 -7 14 -11 17 -11 6z"/>
<path d="M1161 2451 c-1 -30 20 -154 25 -148 2 2 -2 42 -10 88 -8 46 -14 73
-15 60z"/>
<path d="M3122 2445 c0 -16 2 -22 5 -12 2 9 2 23 0 30 -3 6 -5 -1 -5 -18z"/>
<path d="M3101 2342 c-16 -90 -75 -264 -112 -332 -16 -30 -22 -46 -13 -35 26
31 80 153 102 230 25 84 47 194 40 200 -2 3 -10 -25 -17 -63z"/>
<path d="M2228 2378 c23 -9 170 -10 175 0 3 4 -39 7 -94 7 -54 0 -91 -3 -81
-7z"/>
<path d="M2641 2354 c0 -11 3 -14 6 -6 3 7 2 16 -1 19 -3 4 -6 -2 -5 -13z"/>
<path d="M2617 2230 c-32 -187 -127 -531 -174 -623 -8 -16 -12 -31 -10 -34 7
-6 65 118 99 212 15 44 26 64 22 45 -11 -67 -82 -315 -117 -410 -51 -141 -51
-144 -1 -40 91 186 154 420 194 722 14 104 18 167 12 194 -8 37 -9 33 -25 -66z"/>
<path d="M1681 2163 c-12 -37 -12 -45 3 -68 9 -14 21 -25 27 -25 6 0 7 5 2 13
-4 6 -10 37 -13 67 l-5 55 -14 -42z"/>
<path d="M1743 1883 c9 -2 23 -2 30 0 6 3 -1 5 -18 5 -16 0 -22 -2 -12 -5z"/>
<path d="M2005 1856 c61 -18 61 -18 50 -7 -6 6 -30 13 -55 16 l-45 5 50 -14z"/>
<path d="M2752 1830 c0 -19 2 -27 5 -17 2 9 2 25 0 35 -3 9 -5 1 -5 -18z"/>
<path d="M1081 1834 c0 -11 3 -14 6 -6 3 7 2 16 -1 19 -3 4 -6 -2 -5 -13z"/>
<path d="M1462 1820 c0 -14 2 -19 5 -12 2 6 2 18 0 25 -3 6 -5 1 -5 -13z"/>
<path d="M1471 1774 c0 -11 3 -14 6 -6 3 7 2 16 -1 19 -3 4 -6 -2 -5 -13z"/>
<path d="M2965 1714 c18 -68 35 -188 45 -319 20 -253 -8 -440 -94 -634 -40
-93 -151 -276 -182 -301 -7 -7 -14 -17 -14 -22 0 -13 107 109 150 172 21 31
54 85 74 120 20 36 36 61 37 55 0 -10 7 13 48 160 31 112 38 303 17 455 -16
117 -58 289 -77 319 -8 13 -9 13 -4 -5z"/>
<path d="M2235 1309 c-77 -50 -165 -103 -195 -119 -30 -15 -66 -37 -80 -49
l-25 -21 44 15 c101 35 181 82 306 183 136 111 132 110 -50 -9z"/>
<path d="M1845 1305 c4 -11 18 -60 32 -110 32 -117 31 -115 32 -79 1 37 -32
147 -55 184 -11 18 -13 19 -9 5z"/>
<path d="M1940 1087 c0 -3 11 -29 25 -59 13 -29 43 -123 65 -208 22 -84 43
-156 45 -159 13 -13 2 134 -15 208 -22 91 -72 196 -102 212 -10 5 -18 8 -18 6z"/>
<path d="M1777 1018 c-81 -110 -177 -343 -164 -396 3 -11 7 -6 12 16 14 59 20
42 20 -55 0 -84 -2 -96 -20 -105 -45 -25 -46 -52 -2 -45 l33 5 -27 -76 c-35
-102 -71 -247 -67 -275 2 -12 18 32 37 98 76 273 77 274 128 297 24 11 47 18
49 15 2 -2 -18 -25 -46 -51 -62 -59 -66 -87 -12 -85 23 1 28 3 15 6 -13 2 -23
7 -23 9 0 3 27 31 61 63 48 46 60 63 55 79 -6 16 2 27 41 53 l48 32 -25 -28
-25 -29 27 17 27 17 -24 -63 c-13 -34 -31 -79 -40 -100 -23 -55 -13 -71 13
-20 29 57 112 300 112 329 0 19 -6 24 -27 25 -16 1 -34 1 -41 0 -8 -1 4 24 26
56 22 32 44 69 47 83 5 16 -4 9 -23 -22 -45 -69 -102 -128 -124 -128 -14 0
-18 5 -14 18 19 60 45 205 45 247 -1 39 -8 15 -32 -107 -21 -105 -36 -158 -44
-158 -17 0 -16 72 2 175 8 43 12 81 10 83 -2 2 -11 -23 -20 -55 -10 -32 -26
-80 -36 -108 -10 -27 -20 -60 -24 -72 -7 -24 -39 -31 -51 -12 -6 11 95 225
136 287 36 52 8 36 -33 -20z m-21 -248 c0 -16 -4 -30 -8 -30 -10 0 -10 22 -2
44 9 23 12 20 10 -14z m207 -70 c-3 -11 -22 -34 -43 -50 -42 -33 -219 -140
-232 -140 -4 0 -8 43 -8 96 0 95 0 95 23 87 36 -13 168 -7 212 10 53 20 54 20
48 -3z"/>
<path d="M3026 808 c-68 -249 -146 -405 -260 -526 -80 -84 -273 -248 -282
-239 -2 2 20 23 51 47 82 63 176 168 213 237 45 84 40 92 -8 12 -51 -85 -124
-159 -257 -259 -63 -47 -98 -80 -87 -80 10 0 30 9 44 20 34 26 48 25 24 -2
-45 -51 238 173 311 247 86 87 127 149 181 272 32 76 108 347 101 366 -1 5
-15 -38 -31 -95z"/>
<path d="M1944 778 l-19 -23 23 19 c21 18 27 26 19 26 -2 0 -12 -10 -23 -22z"/>
<path d="M2970 760 c0 -8 -20 -55 -45 -106 -93 -192 -214 -280 -587 -428 -178
-70 -308 -132 -398 -190 -85 -55 -31 -44 70 14 48 28 195 95 328 149 241 99
345 149 401 197 18 15 36 22 43 18 7 -4 10 -4 6 0 -4 5 18 37 47 72 30 35 66
86 80 114 35 69 68 160 61 167 -3 4 -6 0 -6 -7z"/>
</g>
</svg>
